HIERARCHY
ROOT hip
{
	OFFSET 0.000000 0.000000 0.000000 
	CHANNELS 6 Xposition Yposition Zposition Xrotation Zrotation Yrotation
	JOINT abdomen
	{
		OFFSET 0.000000 3.402643 0.000000 
		CHANNELS 3 Xrotation Zrotation Yrotation
		JOINT chest
		{
			OFFSET 0.000000 8.438565 -0.680529 
			CHANNELS 3 Xrotation Zrotation Yrotation
			JOINT neck
			{
				OFFSET 0.000000 10.207942 -0.272212 
				CHANNELS 3 Xrotation Zrotation Yrotation
				JOINT head
				{
					OFFSET 0.000000 3.130431 0.000000 
					CHANNELS 3 Xrotation Zrotation Yrotation
					End Site
					{
						OFFSET 0.000000 3.130435 0.000000 
					}
				}
			}
			JOINT lCollar
			{
				OFFSET 3.470700 6.669187 -0.816635 
				CHANNELS 3 Yrotation Zrotation Xrotation
				JOINT lShldr
				{
					OFFSET 3.198488 0.000000 0.000000 
					CHANNELS 3 Zrotation Yrotation Xrotation
					JOINT lForeArm
					{
						OFFSET 10.139888 0.000000 0.000000 
						CHANNELS 3 Yrotation Zrotation Xrotation
						JOINT lHand
						{
							OFFSET 8.370511 0.000000 0.000000 
							CHANNELS 3 Zrotation Yrotation Xrotation
							End Site
							{
								OFFSET 4.083176 0.000000 0.000000 
							}
						}
					}
				}
			}
			JOINT rCollar
			{
				OFFSET -3.470700 6.669187 -0.816635 
				CHANNELS 3 Yrotation Zrotation Xrotation
				JOINT rShldr
				{
					OFFSET -3.198488 0.000000 0.000000 
					CHANNELS 3 Zrotation Yrotation Xrotation
					JOINT rForeArm
					{
						OFFSET -10.139888 0.000000 0.000000 
						CHANNELS 3 Yrotation Zrotation Xrotation
						JOINT rHand
						{
							OFFSET -8.370511 0.000000 0.000000 
							CHANNELS 3 Zrotation Yrotation Xrotation
							End Site
							{
								OFFSET -4.083176 0.000000 0.000000 
							}
						}
					}
				}
			}
		}
	}
	JOINT lThigh
	{
		OFFSET 5.308129 -1.633274 1.361059 
		CHANNELS 3 Xrotation Zrotation Yrotation
		JOINT lShin
		{
			OFFSET -2.041588 -20.007561 0.000000 
			CHANNELS 3 Xrotation Zrotation Yrotation
			JOINT lFoot
			{
				OFFSET 0.000000 -19.190928 -1.224953 
				CHANNELS 3 Xrotation Yrotation Zrotation
				End Site
				{
					OFFSET 0.000000 -2.449906 4.627600 
				}
			}
		}
	}
	JOINT rThigh
	{
		OFFSET -5.308129 -1.633274 1.361059 
		CHANNELS 3 Xrotation Zrotation Yrotation
		JOINT rShin
		{
			OFFSET 2.041588 -20.007561 0.000000 
			CHANNELS 3 Xrotation Zrotation Yrotation
			JOINT rFoot
			{
				OFFSET 0.000000 -19.190928 -1.224953 
				CHANNELS 3 Xrotation Yrotation Zrotation
				End Site
				{
					OFFSET 0.000000 -2.449906 4.627600 
				}
			}
		}
	}
}
MOTION
Frames: 11
Frame Time: 0.011111
40.582684 22.929939 -2.639872 -124.532982 179.759384 3.141121 60.090611 -1.073343 1.710340 -30.755587 4.079086 -1.050138 5.061776 -4.124124 -2.055555 15.826097 11.046339 -4.527006 2.971642 -4.490881 1.927035 16.687983 -93.207077 -24.103262 -69.086632 9.249508 16.636946 8.524705 12.647240 -49.534557 -4.704987 0.510038 2.448925 75.588860 97.817917 58.272469 63.792698 -9.459677 14.134703 -8.534408 -12.637552 41.380718 -51.300877 39.456707 2.534812 124.047340 5.989458 -8.854687 -9.825981 -23.958181 -8.885153 -36.772747 -16.353876 -15.765048 117.328255 -5.116156 9.249652 -21.671883 0.374790 2.719331 
40.577343 22.961052 -3.342580 -124.045906 -179.366211 3.407659 59.969067 -1.484262 1.090958 -30.542953 4.383886 -1.124111 5.104733 -4.457967 -2.040417 16.030283 11.340334 -4.454142 2.971642 -4.490881 1.927035 8.703983 -92.893280 -15.706105 -69.193871 9.242635 16.687521 8.524705 12.647240 -48.704475 -4.704987 0.510038 2.448925 77.098846 98.215965 60.092064 63.993977 -9.458826 14.222210 -8.534408 -12.637552 41.605328 -49.242058 37.748970 3.382820 122.663979 5.804835 -8.954516 -9.784415 -24.167463 -8.922457 -35.904999 -17.790298 -15.698138 118.580688 -5.282679 9.170063 -22.526731 0.935559 2.867158 
40.577972 22.946596 -4.074202 -123.519371 -178.122833 3.802533 60.013622 -2.143247 0.230464 -30.534542 4.529805 -1.191918 5.528655 -4.644207 -2.056733 15.834052 11.842507 -4.440507 2.971642 -4.490881 1.927035 2.556676 -92.710197 -8.858048 -69.267097 9.234592 16.724634 8.524705 12.647240 -47.766979 -4.704987 0.510038 2.448925 78.743309 98.517212 61.815857 64.293938 -9.465471 14.367906 -8.534408 -12.637552 41.888531 -47.213982 36.003460 4.472288 121.702972 5.678781 -9.028716 -10.013659 -24.033976 -8.979896 -35.192577 -20.065889 -15.762280 120.068321 -5.488379 9.085242 -23.225195 1.671787 3.132808 
40.575146 22.906685 -4.825309 -123.127289 -177.103897 4.362264 59.877754 -2.647934 -0.366881 -30.578539 4.958055 -1.240921 6.236337 -4.839049 -2.129051 15.400526 12.146739 -4.537695 2.971642 -4.490881 1.927035 -2.597448 -92.597794 -3.004216 -69.214333 9.239638 16.699722 8.524705 12.647240 -46.409557 -4.704987 0.510038 2.448925 80.739990 98.907738 64.395035 64.632950 -9.461058 14.520109 -8.534408 -12.637552 42.142433 -45.789658 34.832787 5.350582 121.330826 5.629804 -9.047034 -9.619184 -23.348999 -8.639218 -34.479977 -22.331369 -16.126871 121.557434 -5.682716 8.992459 -23.983601 2.429377 3.414314 
40.544979 22.891602 -5.581129 -122.741272 -176.763245 4.909331 59.552780 -2.451293 -0.422721 -30.284662 4.983863 -1.269073 6.672250 -5.076732 -2.129856 15.206311 12.566645 -4.469633 2.971642 -4.490881 1.927035 -15.230647 -92.438103 10.557887 -69.161530 9.244585 16.674833 8.524705 12.647240 -44.974010 -4.704987 0.510038 2.448925 82.128738 99.277794 65.892662 64.953026 -9.461805 14.678894 -8.534408 -12.637552 41.927589 -44.809093 34.838898 5.797695 121.536194 5.657565 -9.045326 -9.548521 -22.663151 -8.408833 -33.173634 -23.740068 -16.880224 122.830963 -5.849432 8.932482 -24.928049 3.166678 3.704583 
40.494064 22.922400 -6.333807 -122.342651 -177.177353 5.249490 59.095993 -1.792820 0.442522 -29.923410 5.102065 -1.178725 7.045926 -5.395713 -2.283518 15.018845 12.501113 -4.746843 2.971642 -4.490881 1.927035 -25.847971 -92.407402 21.505489 -69.161530 9.244585 16.674833 8.524705 12.647240 -43.860729 -4.704987 0.510038 2.448925 83.402321 99.653465 67.605042 65.570457 -9.453341 14.965839 -8.534408 -12.637552 41.947121 -44.205376 36.285606 5.967856 122.163971 5.736310 -8.989430 -9.627110 -22.620480 -8.416795 -31.610577 -23.993114 -17.694536 123.900208 -5.985097 8.863215 -25.816628 3.691972 3.935401 
40.437809 22.987450 -7.071084 -121.957932 -177.443649 5.605398 58.825283 -1.131462 0.998415 -29.842377 4.861829 -1.136194 7.369071 -5.420765 -2.347930 14.986895 12.356771 -4.904885 2.971642 -4.490881 1.927035 -38.379921 -92.475677 34.775448 -69.318352 9.225999 16.742105 8.524705 12.647240 -42.659561 -4.704987 0.510038 2.448925 84.487556 99.943901 68.890953 66.188568 -9.439897 15.253556 -8.534408 -12.637552 42.132671 -43.573009 37.762356 6.238674 123.134842 5.863523 -8.922411 -9.755377 -22.906136 -8.534576 -30.242863 -24.363297 -18.295321 124.940498 -6.113183 8.792110 -26.409746 4.129211 4.112318 
40.389095 23.056593 -7.806792 -121.388115 -177.307312 6.071025 58.852673 -0.793466 1.263961 -29.568579 4.929292 -1.153930 7.177685 -5.455188 -2.494540 15.510818 12.006277 -5.275891 2.971642 -4.490881 1.927035 -50.916409 -92.674141 47.741432 -69.498260 9.210228 16.839787 8.524705 12.647240 -41.585339 -4.704987 0.510038 2.448925 86.067322 100.652306 70.796356 66.643509 -9.419036 15.469398 -8.534408 -12.637552 42.044781 -42.704479 38.847015 6.607097 124.273239 6.019211 -8.832880 -10.637143 -23.547688 -9.073608 -28.601839 -25.358349 -18.997786 125.893295 -6.248980 8.724153 -26.964020 4.628735 4.369939 
40.346039 23.133274 -8.540614 -120.823631 -176.909042 6.377372 58.860912 -0.865378 1.375653 -29.412394 4.987308 -1.110539 7.141182 -5.384968 -2.668829 16.016064 11.796895 -5.692601 2.971642 -4.490881 1.927035 -59.727989 -92.926125 57.174309 -69.666199 9.191231 16.917637 8.524705 12.647240 -40.413464 -4.704987 0.510038 2.448925 87.461227 101.176880 72.287933 67.238922 -9.393441 15.757574 -8.534408 -12.637552 41.644390 -41.499920 39.868477 7.260182 125.332687 6.154548 -8.784514 -11.935658 -24.417231 -9.850863 -26.969585 -26.643946 -19.570877 126.817200 -6.365327 8.654875 -27.549007 5.202059 4.664333 
40.296383 23.203354 -9.260921 -120.650459 -176.648102 6.654016 58.487122 -0.885064 1.534820 -29.315186 5.058705 -1.044820 7.704907 -5.621142 -2.713714 15.553287 12.331408 -5.695523 2.971642 -4.490881 1.927035 -66.583290 -93.218063 64.517982 -69.772751 9.182094 16.968609 8.524705 12.647240 -39.388073 -4.704987 0.510038 2.448925 88.631844 101.610138 73.480537 68.012619 -9.345697 16.125328 -8.534408 -12.637552 41.058456 -40.798546 41.071384 7.627954 126.295662 6.272985 -8.702147 -12.678722 -25.306543 -10.441294 -25.857077 -27.650597 -20.049969 127.722092 -6.483923 8.577251 -28.046461 5.563033 4.834664 
40.215305 23.264324 -9.993172 -120.469757 -176.567108 7.048048 58.062538 -0.561439 1.877209 -29.000000 4.902296 -0.979872 8.185539 -5.657447 -2.793962 15.207890 12.623408 -5.800653 2.971642 -4.490881 1.927035 -72.382515 -93.579330 70.669685 -69.835396 9.173966 16.996508 8.524705 12.647240 -38.411510 -4.704987 0.510038 2.448925 89.913788 102.188622 74.725998 68.816345 -9.283039 16.517588 -8.534408 -12.637552 40.208843 -40.385353 42.141762 7.481128 127.180511 6.389219 -8.632813 -12.931238 -26.071453 -10.822926 -24.666115 -28.500547 -20.609970 128.577698 -6.580695 8.520959 -28.541418 5.700561 4.899805 
